<?xml version="1.0" encoding="utf-8"?>
<!-- Generator: Adobe Illustrator 26.0.1, SVG Export Plug-In . SVG Version: 6.00 Build 0)  -->
<svg version="1.1" id="Layer_1" xmlns="http://www.w3.org/2000/svg" xmlns:xlink="http://www.w3.org/1999/xlink" x="0px" y="0px"
	 viewBox="0 0 176 32" style="enable-background:new 0 0 176 32;" xml:space="preserve">
<style type="text/css">
	.st0{fill:#3C50E0;}
	.st1{fill:#FFFFFF;}
	.st2{opacity:0.9;}
	.st3{opacity:0.7;}
	.st4{fill:#1C2434;}
	.st5{font-family:'Poppins-SemiBold';}
	.st6{font-size:24.1372px;}
</style>
<path class="st0" d="M18.7,6.6c0-5.8,4.7-10.5,10.5-10.5H48c5.8,0,10.5,4.7,10.5,10.5v18.9c0,5.8-4.7,10.5-10.5,10.5H29.1
	c-5.8,0-10.5-4.7-10.5-10.5V6.6z"/>
<g>
	<path class="st1" d="M29.1,6.6c0-1.2,0.9-2.1,2.1-2.1l0,0c1.2,0,2.1,0.9,2.1,2.1v18.9c0,1.2-0.9,2.1-2.1,2.1l0,0
		c-1.2,0-2.1-0.9-2.1-2.1V6.6z"/>
</g>
<g class="st2">
	<path class="st1" d="M37,15c0-1.2,0.9-2.1,2.1-2.1l0,0c1.2,0,2.1,0.9,2.1,2.1v10.5c0,1.2-0.9,2.1-2.1,2.1l0,0
		c-1.2,0-2.1-0.9-2.1-2.1V15z"/>
</g>
<g class="st3">
	<path class="st1" d="M44.8,9.7c0-1.2,0.9-2.1,2.1-2.1l0,0c1.2,0,2.1,0.9,2.1,2.1v15.7c0,1.2-0.9,2.1-2.1,2.1l0,0
		c-1.2,0-2.1-0.9-2.1-2.1V9.7z"/>
</g>
<text transform="matrix(1 0 0 1 66.5159 12.8978)"><tspan x="0" y="0" class="st4 st5 st6">Master</tspan><tspan x="0" y="23" class="st4 st5 st6">Writers</tspan></text>
</svg>
