<svg id="Layer_1" data-name="Layer 1" xmlns="http://www.w3.org/2000/svg" viewBox="0 0 136.2 57.84"><defs><style>.cls-1{fill:#3c50e0;}.cls-2{fill:#fff;}.cls-3{opacity:0.9;}.cls-4{opacity:0.7;}.cls-5{font-size:24.14px;fill:#1c2434;font-family:Poppins-SemiBold, Poppins;font-weight:600;}</style></defs><path class="cls-1" d="M18.66,6.57A10.47,10.47,0,0,1,29.13-3.9H48A10.48,10.48,0,0,1,58.46,6.57V25.43A10.48,10.48,0,0,1,48,35.9H29.13A10.47,10.47,0,0,1,18.66,25.43Z" transform="translate(-18.66 7.63)"/><path class="cls-2" d="M29.13,6.57a2.1,2.1,0,0,1,2.1-2.09h0a2.09,2.09,0,0,1,2.09,2.09V25.43a2.09,2.09,0,0,1-2.09,2.09h0a2.1,2.1,0,0,1-2.1-2.09Z" transform="translate(-18.66 7.63)"/><g class="cls-3"><path class="cls-2" d="M37,15a2.1,2.1,0,0,1,2.09-2.09h0A2.1,2.1,0,0,1,41.18,15V25.42a2.1,2.1,0,0,1-2.1,2.1h0A2.1,2.1,0,0,1,37,25.42Z" transform="translate(-18.66 7.63)"/></g><g class="cls-4"><path class="cls-2" d="M44.84,9.72a2.1,2.1,0,0,1,2.1-2.1h0A2.1,2.1,0,0,1,49,9.72v15.7a2.1,2.1,0,0,1-2.09,2.1h0a2.1,2.1,0,0,1-2.1-2.1Z" transform="translate(-18.66 7.63)"/></g><text class="cls-5" transform="translate(47.85 20.53)">Master<tspan x="0" y="23">Writers</tspan></text></svg>