<svg id="Layer_1" data-name="Layer 1" xmlns="http://www.w3.org/2000/svg" viewBox="0 0 136.2 57.84"><defs><style>.cls-1{fill:#3c50e0;}.cls-2,.cls-5{fill:#fff;}.cls-3{opacity:0.9;}.cls-4{opacity:0.7;}.cls-5{font-size:24.14px;font-family:Poppins-SemiBold, Poppins;font-weight:600;}</style></defs><path class="cls-1" d="M16.86,7.59A10.48,10.48,0,0,1,27.34-2.89H46.19A10.48,10.48,0,0,1,56.66,7.59V26.44A10.47,10.47,0,0,1,46.19,36.91H27.34A10.48,10.48,0,0,1,16.86,26.44Z" transform="translate(-16.86 6.62)"/><path class="cls-2" d="M27.34,7.59a2.09,2.09,0,0,1,2.09-2.1h0a2.1,2.1,0,0,1,2.1,2.1V26.44a2.1,2.1,0,0,1-2.1,2.09h0a2.09,2.09,0,0,1-2.09-2.09Z" transform="translate(-16.86 6.62)"/><g class="cls-3"><path class="cls-2" d="M35.19,16a2.1,2.1,0,0,1,2.09-2.09h0A2.1,2.1,0,0,1,39.38,16V26.44a2.1,2.1,0,0,1-2.1,2.09h0a2.1,2.1,0,0,1-2.09-2.09Z" transform="translate(-16.86 6.62)"/></g><g class="cls-4"><path class="cls-2" d="M43,10.73a2.1,2.1,0,0,1,2.1-2.1h0a2.09,2.09,0,0,1,2.09,2.1V26.44a2.09,2.09,0,0,1-2.09,2.09h0A2.1,2.1,0,0,1,43,26.44Z" transform="translate(-16.86 6.62)"/></g><text class="cls-5" transform="translate(47.85 20.53)">Master<tspan x="0" y="23">Writers</tspan></text></svg>